<svg width="39" height="39" viewBox="0 0 39 39" fill="none" xmlns="http://www.w3.org/2000/svg">
<path d="M16.6782 33.3547C20.3787 33.354 23.9725 32.1152 26.8874 29.8358L36.0521 39L39 36.0523L29.8353 26.8881C32.1161 23.973 33.3556 20.3786 33.3565 16.6774C33.3565 7.48188 25.8742 0 16.6782 0C7.48228 0 0 7.48188 0 16.6774C0 25.8728 7.48228 33.3547 16.6782 33.3547ZM16.6782 4.16934C23.5768 4.16934 29.1869 9.77919 29.1869 16.6774C29.1869 23.5755 23.5768 29.1854 16.6782 29.1854C9.77971 29.1854 4.16956 23.5755 4.16956 16.6774C4.16956 9.77919 9.77971 4.16934 16.6782 4.16934Z" fill="white"/>
</svg>
